<mxfile host="app.diagrams.net" agent="Mozilla/5.0 (Macintosh; Intel Mac OS X 10_15_7) AppleWebKit/537.36 (KHTML, like Gecko) Chrome/136.0.0.0 Safari/537.36" version="27.1.4">
  <diagram name="Page-1" id="L1RatjPxenl9vrnPu1-D">
    <mxGraphModel dx="-849" dy="233" grid="1" gridSize="10" guides="1" tooltips="1" connect="1" arrows="1" fold="1" page="1" pageScale="1" pageWidth="1169" pageHeight="827" math="0" shadow="0">
      <root>
        <mxCell id="0" />
        <mxCell id="1" parent="0" />
        <mxCell id="0Tk5fZXrLw2a1cFThhE1-13" value="Servidores WolfSys" style="rounded=1;whiteSpace=wrap;html=1;fillColor=none;strokeColor=#7EA6E0;strokeWidth=2;dashed=1;verticalAlign=bottom;fontSize=14;fontStyle=1;labelPosition=center;verticalLabelPosition=top;align=center;" parent="1" vertex="1">
          <mxGeometry x="1250" y="82.5" width="600" height="377.5" as="geometry" />
        </mxCell>
        <mxCell id="0Tk5fZXrLw2a1cFThhE1-14" value="Edificio Local" style="rounded=1;whiteSpace=wrap;html=1;fillColor=none;strokeColor=#82B366;strokeWidth=2;dashed=1;verticalAlign=bottom;fontSize=14;fontStyle=1;labelPosition=center;verticalLabelPosition=top;align=center;" parent="1" vertex="1">
          <mxGeometry x="1900" y="85" width="350" height="300" as="geometry" />
        </mxCell>
        <mxCell id="0Tk5fZXrLw2a1cFThhE1-15" value="Dispositivos Cliente" style="rounded=1;whiteSpace=wrap;html=1;fillColor=none;strokeColor=#B85450;strokeWidth=2;dashed=1;verticalAlign=bottom;fontSize=14;fontStyle=1;labelPosition=center;verticalLabelPosition=top;align=center;" parent="1" vertex="1">
          <mxGeometry x="1250" y="630" width="600" height="150" as="geometry" />
        </mxCell>
        <mxCell id="0Tk5fZXrLw2a1cFThhE1-16" value="Servidor Aplicación&lt;br&gt;&lt;div&gt;&lt;br&gt;&lt;/div&gt;&lt;div&gt;&lt;br&gt;&lt;/div&gt;&lt;div&gt;&lt;br&gt;&lt;/div&gt;" style="shape=cube;whiteSpace=wrap;html=1;boundedLbl=1;backgroundOutline=1;darkOpacity=0.05;darkOpacity2=0.1;fillColor=#f8cecc;strokeColor=#b85450;fontSize=12;fontStyle=0;" parent="1" vertex="1">
          <mxGeometry x="1280" y="125" width="150" height="100" as="geometry" />
        </mxCell>
        <mxCell id="0Tk5fZXrLw2a1cFThhE1-17" value="Servidor Procesamiento&lt;br&gt;&lt;br&gt;&amp;lt;&amp;lt;artifact&amp;gt;&amp;gt;&lt;br&gt;Servicios Negocio&lt;br&gt;Modelo Scoring" style="shape=cube;whiteSpace=wrap;html=1;boundedLbl=1;backgroundOutline=1;darkOpacity=0.05;darkOpacity2=0.1;fillColor=#f8cecc;strokeColor=#b85450;fontSize=11;fontStyle=0;" parent="1" vertex="1">
          <mxGeometry x="1480" y="125" width="150" height="100" as="geometry" />
        </mxCell>
        <mxCell id="0Tk5fZXrLw2a1cFThhE1-18" value="Servidor Control&lt;br&gt;&lt;br&gt;&amp;lt;&amp;lt;artifact&amp;gt;&amp;gt;&lt;br&gt;Gestor Control&lt;br&gt;de Acceso" style="shape=cube;whiteSpace=wrap;html=1;boundedLbl=1;backgroundOutline=1;darkOpacity=0.05;darkOpacity2=0.1;fillColor=#f8cecc;strokeColor=#b85450;fontSize=12;fontStyle=0;" parent="1" vertex="1">
          <mxGeometry x="1680" y="125" width="150" height="100" as="geometry" />
        </mxCell>
        <mxCell id="0Tk5fZXrLw2a1cFThhE1-19" value="DB Principal&lt;br&gt;&lt;br&gt;&amp;lt;&amp;lt;artifact&amp;gt;&amp;gt;&lt;br&gt;PostgreSQL&lt;br&gt;DB General" style="shape=cube;whiteSpace=wrap;html=1;boundedLbl=1;backgroundOutline=1;darkOpacity=0.05;darkOpacity2=0.1;fillColor=#ffe6cc;strokeColor=#d79b00;fontSize=11;fontStyle=0;" parent="1" vertex="1">
          <mxGeometry x="1310" y="265" width="130" height="90" as="geometry" />
        </mxCell>
        <mxCell id="0Tk5fZXrLw2a1cFThhE1-20" value="DB Datos crudos Videos&lt;br&gt;&lt;br&gt;&amp;lt;&amp;lt;artifact&amp;gt;&amp;gt;&lt;br&gt;Almacén Frío&lt;br&gt;Videos Históricos" style="shape=cube;whiteSpace=wrap;html=1;boundedLbl=1;backgroundOutline=1;darkOpacity=0.05;darkOpacity2=0.1;fillColor=#ffe6cc;strokeColor=#d79b00;fontSize=9;fontStyle=0;" parent="1" vertex="1">
          <mxGeometry x="1520" y="285.5" width="130" height="90" as="geometry" />
        </mxCell>
        <mxCell id="0Tk5fZXrLw2a1cFThhE1-50" style="edgeStyle=orthogonalEdgeStyle;rounded=0;orthogonalLoop=1;jettySize=auto;html=1;exitX=0;exitY=0;exitDx=0;exitDy=38.5;exitPerimeter=0;" parent="1" source="0Tk5fZXrLw2a1cFThhE1-21" target="0Tk5fZXrLw2a1cFThhE1-17" edge="1">
          <mxGeometry relative="1" as="geometry">
            <Array as="points">
              <mxPoint x="1750" y="517" />
              <mxPoint x="1750" y="470" />
              <mxPoint x="1510" y="470" />
              <mxPoint x="1510" y="245" />
              <mxPoint x="1555" y="245" />
            </Array>
          </mxGeometry>
        </mxCell>
        <mxCell id="0Tk5fZXrLw2a1cFThhE1-21" value="Tumimeras&lt;br&gt;&lt;br&gt;&amp;lt;&amp;lt;external&amp;gt;&amp;gt;&lt;br&gt;Video Streams&lt;br&gt;Sistema Externo" style="shape=cube;whiteSpace=wrap;html=1;boundedLbl=1;backgroundOutline=1;darkOpacity=0.05;darkOpacity2=0.1;fillColor=#dae8fc;strokeColor=#6c8ebf;fontSize=9;fontStyle=0;" parent="1" vertex="1">
          <mxGeometry x="1760" y="478" width="140" height="97" as="geometry" />
        </mxCell>
        <mxCell id="0Tk5fZXrLw2a1cFThhE1-22" value="&amp;nbsp;La Heladera&lt;br&gt;&lt;br&gt;&amp;lt;&amp;lt;artifact&amp;gt;&amp;gt;&lt;br&gt;Archivado&lt;br&gt;Videos Fríos" style="shape=cube;whiteSpace=wrap;html=1;boundedLbl=1;backgroundOutline=1;darkOpacity=0.05;darkOpacity2=0.1;fillColor=#fff2cc;strokeColor=#d6b656;fontSize=9;fontStyle=0;" parent="1" vertex="1">
          <mxGeometry x="1680" y="351" width="140" height="95" as="geometry" />
        </mxCell>
        <mxCell id="0Tk5fZXrLw2a1cFThhE1-23" value="Gateway Edificio&lt;br&gt;&lt;br&gt;&amp;lt;&amp;lt;artifact&amp;gt;&amp;gt;&lt;br&gt;Router Local&lt;br&gt;Comunicación" style="shape=cube;whiteSpace=wrap;html=1;boundedLbl=1;backgroundOutline=1;darkOpacity=0.05;darkOpacity2=0.1;fillColor=#d5e8d4;strokeColor=#82b366;fontSize=11;fontStyle=0;" parent="1" vertex="1">
          <mxGeometry x="1930" y="125" width="140" height="90" as="geometry" />
        </mxCell>
        <mxCell id="0Tk5fZXrLw2a1cFThhE1-24" value="Edge Controller&lt;br&gt;&lt;br&gt;&amp;lt;&amp;lt;artifact&amp;gt;&amp;gt;&lt;br&gt;Control Puertas&lt;br&gt;Acceso Local" style="shape=cube;whiteSpace=wrap;html=1;boundedLbl=1;backgroundOutline=1;darkOpacity=0.05;darkOpacity2=0.1;fillColor=#d5e8d4;strokeColor=#82b366;fontSize=11;fontStyle=0;" parent="1" vertex="1">
          <mxGeometry x="2090" y="125" width="140" height="90" as="geometry" />
        </mxCell>
        <mxCell id="0Tk5fZXrLw2a1cFThhE1-25" value="DB Local Tags&lt;br&gt;&lt;br&gt;&amp;lt;&amp;lt;artifact&amp;gt;&amp;gt;&lt;br&gt;SQLite&lt;br&gt;Tags RFID" style="shape=cube;whiteSpace=wrap;html=1;boundedLbl=1;backgroundOutline=1;darkOpacity=0.05;darkOpacity2=0.1;fillColor=#ffe6cc;strokeColor=#d79b00;fontSize=11;fontStyle=0;" parent="1" vertex="1">
          <mxGeometry x="2095" y="265" width="130" height="90" as="geometry" />
        </mxCell>
        <mxCell id="0Tk5fZXrLw2a1cFThhE1-26" value="App Móvil&lt;br&gt;&lt;br&gt;&amp;lt;&amp;lt;artifact&amp;gt;&amp;gt;&lt;br&gt;Residentes&lt;br&gt;iOS/Android" style="shape=cube;whiteSpace=wrap;html=1;boundedLbl=1;backgroundOutline=1;darkOpacity=0.05;darkOpacity2=0.1;fillColor=#e1d5e7;strokeColor=#9673a6;fontSize=9;fontStyle=0;" parent="1" vertex="1">
          <mxGeometry x="1300" y="660" width="130" height="90" as="geometry" />
        </mxCell>
        <mxCell id="0Tk5fZXrLw2a1cFThhE1-27" value="App Web&lt;br&gt;&lt;br&gt;&amp;lt;&amp;lt;artifact&amp;gt;&amp;gt;&lt;br&gt;Agentes&lt;br&gt;Navegador" style="shape=cube;whiteSpace=wrap;html=1;boundedLbl=1;backgroundOutline=1;darkOpacity=0.05;darkOpacity2=0.1;fillColor=#e1d5e7;strokeColor=#9673a6;fontSize=9;fontStyle=0;" parent="1" vertex="1">
          <mxGeometry x="1495" y="660" width="125" height="90" as="geometry" />
        </mxCell>
        <mxCell id="0Tk5fZXrLw2a1cFThhE1-28" value="Panel Admin&lt;br&gt;&lt;br&gt;&amp;lt;&amp;lt;artifact&amp;gt;&amp;gt;&lt;br&gt;Administradores&lt;br&gt;Web Admin" style="shape=cube;whiteSpace=wrap;html=1;boundedLbl=1;backgroundOutline=1;darkOpacity=0.05;darkOpacity2=0.1;fillColor=#e1d5e7;strokeColor=#9673a6;fontSize=9;fontStyle=0;" parent="1" vertex="1">
          <mxGeometry x="1694" y="660" width="126" height="90" as="geometry" />
        </mxCell>
        <mxCell id="0Tk5fZXrLw2a1cFThhE1-40" value="Leyenda de Componentes" style="rounded=1;whiteSpace=wrap;html=1;fillColor=#ECF0F1;strokeColor=#BDC3C7;verticalAlign=top;fontSize=14;fontStyle=1;" parent="1" vertex="1">
          <mxGeometry x="2020" y="485" width="230" height="245" as="geometry" />
        </mxCell>
        <mxCell id="0Tk5fZXrLw2a1cFThhE1-41" value="Servidores Wolfsys" style="shape=cube;whiteSpace=wrap;html=1;boundedLbl=1;backgroundOutline=1;darkOpacity=0.05;darkOpacity2=0.1;fillColor=#f8cecc;strokeColor=#b85450;fontSize=10;verticalAlign=middle;labelBackgroundColor=none;horizontal=1;labelPosition=right;verticalLabelPosition=middle;align=left;spacing=15;" parent="1" vertex="1">
          <mxGeometry x="2040" y="515" width="90" height="25" as="geometry" />
        </mxCell>
        <mxCell id="0Tk5fZXrLw2a1cFThhE1-42" value="Bases de Datos" style="shape=cube;whiteSpace=wrap;html=1;boundedLbl=1;backgroundOutline=1;darkOpacity=0.05;darkOpacity2=0.1;fillColor=#ffe6cc;strokeColor=#d79b00;fontSize=10;align=left;labelPosition=right;verticalLabelPosition=middle;verticalAlign=middle;spacing=15;" parent="1" vertex="1">
          <mxGeometry x="2040" y="550" width="90" height="25" as="geometry" />
        </mxCell>
        <mxCell id="0Tk5fZXrLw2a1cFThhE1-43" value="Edge Computing" style="shape=cube;whiteSpace=wrap;html=1;boundedLbl=1;backgroundOutline=1;darkOpacity=0.05;darkOpacity2=0.1;fillColor=#d5e8d4;strokeColor=#82b366;fontSize=10;labelPosition=right;verticalLabelPosition=middle;align=left;verticalAlign=middle;spacing=15;" parent="1" vertex="1">
          <mxGeometry x="2040" y="585" width="90" height="25" as="geometry" />
        </mxCell>
        <mxCell id="0Tk5fZXrLw2a1cFThhE1-44" value="Dispositivos Cliente" style="shape=cube;whiteSpace=wrap;html=1;boundedLbl=1;backgroundOutline=1;darkOpacity=0.05;darkOpacity2=0.1;fillColor=#e1d5e7;strokeColor=#9673a6;fontSize=10;labelPosition=right;verticalLabelPosition=middle;align=left;verticalAlign=middle;spacing=15;" parent="1" vertex="1">
          <mxGeometry x="2040" y="620" width="90" height="25" as="geometry" />
        </mxCell>
        <mxCell id="0Tk5fZXrLw2a1cFThhE1-45" value="Servicios Externos" style="shape=cube;whiteSpace=wrap;html=1;boundedLbl=1;backgroundOutline=1;darkOpacity=0.05;darkOpacity2=0.1;fillColor=#dae8fc;strokeColor=#6c8ebf;fontSize=10;labelPosition=right;verticalLabelPosition=middle;align=left;verticalAlign=middle;spacing=15;" parent="1" vertex="1">
          <mxGeometry x="2040" y="655" width="90" height="25" as="geometry" />
        </mxCell>
        <mxCell id="0Tk5fZXrLw2a1cFThhE1-46" style="edgeStyle=orthogonalEdgeStyle;rounded=0;orthogonalLoop=1;jettySize=auto;html=1;exitX=0;exitY=0;exitDx=150;exitDy=60;exitPerimeter=0;entryX=0.008;entryY=0.665;entryDx=0;entryDy=0;entryPerimeter=0;" parent="1" source="0Tk5fZXrLw2a1cFThhE1-18" target="0Tk5fZXrLw2a1cFThhE1-23" edge="1">
          <mxGeometry relative="1" as="geometry" />
        </mxCell>
        <mxCell id="0Tk5fZXrLw2a1cFThhE1-47" style="edgeStyle=orthogonalEdgeStyle;rounded=0;orthogonalLoop=1;jettySize=auto;html=1;exitX=0.632;exitY=0.992;exitDx=0;exitDy=0;exitPerimeter=0;entryX=0;entryY=0;entryDx=55;entryDy=0;entryPerimeter=0;" parent="1" source="0Tk5fZXrLw2a1cFThhE1-17" target="0Tk5fZXrLw2a1cFThhE1-20" edge="1">
          <mxGeometry relative="1" as="geometry" />
        </mxCell>
        <mxCell id="0Tk5fZXrLw2a1cFThhE1-48" style="edgeStyle=orthogonalEdgeStyle;rounded=0;orthogonalLoop=1;jettySize=auto;html=1;exitX=0;exitY=0;exitDx=0;exitDy=30;exitPerimeter=0;entryX=0;entryY=0;entryDx=0;entryDy=40;entryPerimeter=0;" parent="1" source="0Tk5fZXrLw2a1cFThhE1-26" target="0Tk5fZXrLw2a1cFThhE1-16" edge="1">
          <mxGeometry relative="1" as="geometry">
            <Array as="points">
              <mxPoint x="1210" y="690" />
              <mxPoint x="1210" y="165" />
            </Array>
          </mxGeometry>
        </mxCell>
        <mxCell id="0Tk5fZXrLw2a1cFThhE1-49" style="edgeStyle=orthogonalEdgeStyle;rounded=0;orthogonalLoop=1;jettySize=auto;html=1;exitX=0;exitY=0;exitDx=85;exitDy=100;exitPerimeter=0;entryX=0;entryY=0;entryDx=55;entryDy=0;entryPerimeter=0;" parent="1" source="0Tk5fZXrLw2a1cFThhE1-16" target="0Tk5fZXrLw2a1cFThhE1-19" edge="1">
          <mxGeometry relative="1" as="geometry" />
        </mxCell>
        <mxCell id="0Tk5fZXrLw2a1cFThhE1-53" style="edgeStyle=orthogonalEdgeStyle;rounded=0;orthogonalLoop=1;jettySize=auto;html=1;exitX=0;exitY=0;exitDx=0;exitDy=30;exitPerimeter=0;entryX=0.003;entryY=0.606;entryDx=0;entryDy=0;entryPerimeter=0;" parent="1" source="0Tk5fZXrLw2a1cFThhE1-27" target="0Tk5fZXrLw2a1cFThhE1-16" edge="1">
          <mxGeometry relative="1" as="geometry">
            <Array as="points">
              <mxPoint x="1470" y="690" />
              <mxPoint x="1470" y="555" />
              <mxPoint x="1240" y="555" />
              <mxPoint x="1240" y="186" />
              <mxPoint x="1281" y="186" />
            </Array>
          </mxGeometry>
        </mxCell>
        <mxCell id="0Tk5fZXrLw2a1cFThhE1-55" style="edgeStyle=orthogonalEdgeStyle;rounded=0;orthogonalLoop=1;jettySize=auto;html=1;exitX=0;exitY=0;exitDx=50;exitDy=0;exitPerimeter=0;entryX=1.004;entryY=0.824;entryDx=0;entryDy=0;entryPerimeter=0;" parent="1" source="0Tk5fZXrLw2a1cFThhE1-28" target="0Tk5fZXrLw2a1cFThhE1-16" edge="1">
          <mxGeometry relative="1" as="geometry">
            <Array as="points">
              <mxPoint x="1744" y="505" />
              <mxPoint x="1470" y="505" />
              <mxPoint x="1470" y="207" />
            </Array>
          </mxGeometry>
        </mxCell>
        <mxCell id="0Tk5fZXrLw2a1cFThhE1-56" style="edgeStyle=orthogonalEdgeStyle;rounded=0;orthogonalLoop=1;jettySize=auto;html=1;exitX=0;exitY=0;exitDx=140;exitDy=55;exitPerimeter=0;entryX=0.002;entryY=0.604;entryDx=0;entryDy=0;entryPerimeter=0;" parent="1" source="0Tk5fZXrLw2a1cFThhE1-23" target="0Tk5fZXrLw2a1cFThhE1-24" edge="1">
          <mxGeometry relative="1" as="geometry" />
        </mxCell>
        <mxCell id="0Tk5fZXrLw2a1cFThhE1-57" style="edgeStyle=orthogonalEdgeStyle;rounded=0;orthogonalLoop=1;jettySize=auto;html=1;entryX=0.499;entryY=-0.004;entryDx=0;entryDy=0;entryPerimeter=0;" parent="1" source="0Tk5fZXrLw2a1cFThhE1-24" target="0Tk5fZXrLw2a1cFThhE1-25" edge="1">
          <mxGeometry relative="1" as="geometry" />
        </mxCell>
        <mxCell id="0Tk5fZXrLw2a1cFThhE1-58" value="&amp;lt;&amp;lt;artifact&amp;gt;&amp;gt;&lt;br&gt;B.O.B + APIs&lt;br&gt;Autenticación" style="rounded=0;whiteSpace=wrap;html=1;fillColor=#99FF99;fontColor=#000000;strokeColor=#2D7600;" parent="1" vertex="1">
          <mxGeometry x="1320" y="174" width="90" height="45" as="geometry" />
        </mxCell>
        <mxCell id="0Tk5fZXrLw2a1cFThhE1-59" value="&amp;lt;&amp;lt;artifact&amp;gt;&amp;gt;&lt;br&gt;&lt;span style=&quot;font-size: 11px;&quot;&gt;Servicios Negocio&lt;/span&gt;&lt;br style=&quot;font-size: 11px;&quot;&gt;&lt;span style=&quot;font-size: 11px;&quot;&gt;Modelo Scoring&lt;/span&gt;" style="rounded=0;whiteSpace=wrap;html=1;fillColor=#99FF99;fontColor=#000000;strokeColor=#2D7600;" parent="1" vertex="1">
          <mxGeometry x="1510" y="174" width="110" height="45" as="geometry" />
        </mxCell>
        <mxCell id="0Tk5fZXrLw2a1cFThhE1-61" value="&amp;lt;&amp;lt;artifact&amp;gt;&amp;gt;&lt;br&gt;Gestor Control&lt;br&gt;de Acceso" style="rounded=0;whiteSpace=wrap;html=1;fillColor=#99FF99;fontColor=#000000;strokeColor=#2D7600;" parent="1" vertex="1">
          <mxGeometry x="1710" y="174" width="110" height="45" as="geometry" />
        </mxCell>
        <mxCell id="0Tk5fZXrLw2a1cFThhE1-63" value="&lt;span style=&quot;font-size: 11px;&quot;&gt;&amp;lt;&amp;lt;artifact&amp;gt;&amp;gt;&lt;/span&gt;&lt;br style=&quot;font-size: 11px;&quot;&gt;&lt;span style=&quot;font-size: 11px;&quot;&gt;PostgreSQL&lt;/span&gt;&lt;br style=&quot;font-size: 11px;&quot;&gt;&lt;span style=&quot;font-size: 11px;&quot;&gt;DB General&lt;/span&gt;" style="rounded=0;whiteSpace=wrap;html=1;fillColor=#99FF99;fontColor=#000000;strokeColor=#2D7600;" parent="1" vertex="1">
          <mxGeometry x="1345" y="306" width="80" height="45" as="geometry" />
        </mxCell>
        <mxCell id="0Tk5fZXrLw2a1cFThhE1-65" value="&lt;span&gt;&amp;lt;&amp;lt;artifact&amp;gt;&amp;gt;&lt;/span&gt;&lt;br&gt;&lt;span&gt;Datos Videos Históricos&lt;/span&gt;" style="rounded=0;whiteSpace=wrap;html=1;fillColor=#99FF99;fontColor=#000000;strokeColor=#2D7600;fontSize=8;" parent="1" vertex="1">
          <mxGeometry x="1550" y="325.5" width="90" height="45" as="geometry" />
        </mxCell>
        <mxCell id="0Tk5fZXrLw2a1cFThhE1-68" value="&lt;span&gt;&amp;lt;&amp;lt;artifact&amp;gt;&amp;gt;&lt;/span&gt;&lt;br&gt;&lt;span&gt;Archivado&lt;/span&gt;&lt;br&gt;&lt;span&gt;Videos Fríos&lt;/span&gt;" style="rounded=0;whiteSpace=wrap;html=1;fillColor=light-dark(#99FF99,#99FF99);fontColor=#000000;strokeColor=#2D7600;fontSize=9;" parent="1" vertex="1">
          <mxGeometry x="1723" y="396" width="80" height="45" as="geometry" />
        </mxCell>
        <mxCell id="0Tk5fZXrLw2a1cFThhE1-69" value="&lt;span&gt;&amp;lt;&amp;lt;external&amp;gt;&amp;gt;&lt;/span&gt;&lt;br&gt;Video Streams&lt;br&gt;Sistema Externo" style="rounded=0;whiteSpace=wrap;html=1;fillColor=light-dark(#99CCFF,#004400);fontColor=#000000;strokeColor=#2D7600;fontSize=9;" parent="1" vertex="1">
          <mxGeometry x="1800" y="525" width="80" height="45" as="geometry" />
        </mxCell>
        <mxCell id="0Tk5fZXrLw2a1cFThhE1-70" value="&lt;span style=&quot;font-size: 9px;&quot;&gt;&amp;lt;&amp;lt;artifact&amp;gt;&amp;gt;&lt;/span&gt;&lt;br style=&quot;font-size: 9px;&quot;&gt;&lt;span style=&quot;font-size: 9px;&quot;&gt;Residentes&lt;/span&gt;&lt;br style=&quot;font-size: 9px;&quot;&gt;&lt;span style=&quot;font-size: 9px;&quot;&gt;iOS/Android&lt;/span&gt;" style="rounded=0;whiteSpace=wrap;html=1;fillColor=#99FF99;fontColor=#000000;strokeColor=#2D7600;" parent="1" vertex="1">
          <mxGeometry x="1338" y="702" width="80" height="45" as="geometry" />
        </mxCell>
        <mxCell id="0Tk5fZXrLw2a1cFThhE1-71" value="&lt;span style=&quot;font-size: 9px;&quot;&gt;&amp;lt;&amp;lt;artifact&amp;gt;&amp;gt;&lt;/span&gt;&lt;br style=&quot;font-size: 9px;&quot;&gt;&lt;span style=&quot;font-size: 9px;&quot;&gt;Agentes&lt;/span&gt;&lt;br style=&quot;font-size: 9px;&quot;&gt;&lt;span style=&quot;font-size: 9px;&quot;&gt;Navegador&lt;/span&gt;" style="rounded=0;whiteSpace=wrap;html=1;fillColor=#99FF99;fontColor=#000000;strokeColor=#2D7600;" parent="1" vertex="1">
          <mxGeometry x="1530" y="702" width="80" height="45" as="geometry" />
        </mxCell>
        <mxCell id="0Tk5fZXrLw2a1cFThhE1-72" value="&lt;span style=&quot;font-size: 9px;&quot;&gt;&amp;lt;&amp;lt;artifact&amp;gt;&amp;gt;&lt;/span&gt;&lt;br style=&quot;font-size: 9px;&quot;&gt;&lt;span style=&quot;font-size: 9px;&quot;&gt;Administradores&lt;/span&gt;&lt;br style=&quot;font-size: 9px;&quot;&gt;&lt;span style=&quot;font-size: 9px;&quot;&gt;Web Admin&lt;/span&gt;" style="rounded=0;whiteSpace=wrap;html=1;fillColor=#99FF99;fontColor=#000000;strokeColor=#2D7600;" parent="1" vertex="1">
          <mxGeometry x="1730" y="702" width="80" height="45" as="geometry" />
        </mxCell>
        <mxCell id="0Tk5fZXrLw2a1cFThhE1-73" value="&lt;span style=&quot;font-size: 11px;&quot;&gt;&amp;lt;&amp;lt;artifact&amp;gt;&amp;gt;&lt;/span&gt;&lt;br style=&quot;font-size: 11px;&quot;&gt;&lt;span style=&quot;font-size: 11px;&quot;&gt;Router Local&lt;/span&gt;&lt;br style=&quot;font-size: 11px;&quot;&gt;&lt;span style=&quot;font-size: 11px;&quot;&gt;Comunicación&lt;/span&gt;" style="rounded=0;whiteSpace=wrap;html=1;fillColor=#99FF99;fontColor=#000000;strokeColor=#2D7600;" parent="1" vertex="1">
          <mxGeometry x="1955" y="166" width="110" height="45" as="geometry" />
        </mxCell>
        <mxCell id="0Tk5fZXrLw2a1cFThhE1-74" value="&lt;span style=&quot;font-size: 11px;&quot;&gt;&amp;lt;&amp;lt;artifact&amp;gt;&amp;gt;&lt;/span&gt;&lt;br style=&quot;font-size: 11px;&quot;&gt;&lt;span style=&quot;font-size: 11px;&quot;&gt;Control Puertas&lt;/span&gt;&lt;br style=&quot;font-size: 11px;&quot;&gt;&lt;span style=&quot;font-size: 11px;&quot;&gt;Acceso Local&lt;/span&gt;" style="rounded=0;whiteSpace=wrap;html=1;fillColor=#99FF99;fontColor=#000000;strokeColor=#2D7600;" parent="1" vertex="1">
          <mxGeometry x="2115" y="166" width="110" height="45" as="geometry" />
        </mxCell>
        <mxCell id="0Tk5fZXrLw2a1cFThhE1-75" value="&lt;span style=&quot;font-size: 11px;&quot;&gt;&amp;lt;&amp;lt;artifact&amp;gt;&amp;gt;&lt;/span&gt;&lt;br style=&quot;font-size: 11px;&quot;&gt;&lt;span style=&quot;font-size: 11px;&quot;&gt;SQLite&lt;/span&gt;&lt;br style=&quot;font-size: 11px;&quot;&gt;&lt;span style=&quot;font-size: 11px;&quot;&gt;Tags RFID&lt;/span&gt;" style="rounded=0;whiteSpace=wrap;html=1;fillColor=#99FF99;fontColor=#000000;strokeColor=#2D7600;" parent="1" vertex="1">
          <mxGeometry x="2127.5" y="308" width="85" height="45" as="geometry" />
        </mxCell>
        <mxCell id="0Tk5fZXrLw2a1cFThhE1-77" style="edgeStyle=orthogonalEdgeStyle;rounded=0;orthogonalLoop=1;jettySize=auto;html=1;exitX=0;exitY=0;exitDx=65;exitDy=0;exitPerimeter=0;entryX=0;entryY=0;entryDx=65;entryDy=0;entryPerimeter=0;" parent="1" source="0Tk5fZXrLw2a1cFThhE1-16" target="0Tk5fZXrLw2a1cFThhE1-18" edge="1">
          <mxGeometry relative="1" as="geometry" />
        </mxCell>
        <mxCell id="0Tk5fZXrLw2a1cFThhE1-78" style="edgeStyle=orthogonalEdgeStyle;rounded=0;orthogonalLoop=1;jettySize=auto;html=1;exitX=-0.003;exitY=0.6;exitDx=0;exitDy=0;exitPerimeter=0;entryX=0;entryY=0;entryDx=150;entryDy=60;entryPerimeter=0;" parent="1" source="0Tk5fZXrLw2a1cFThhE1-18" target="0Tk5fZXrLw2a1cFThhE1-17" edge="1">
          <mxGeometry relative="1" as="geometry">
            <mxPoint x="1678.8000000000002" y="183" as="sourcePoint" />
            <mxPoint x="1630" y="182" as="targetPoint" />
            <Array as="points">
              <mxPoint x="1660" y="185" />
              <mxPoint x="1660" y="185" />
            </Array>
          </mxGeometry>
        </mxCell>
        <mxCell id="0Tk5fZXrLw2a1cFThhE1-79" value="Servicios Internos" style="shape=cube;whiteSpace=wrap;html=1;boundedLbl=1;backgroundOutline=1;darkOpacity=0.05;darkOpacity2=0.1;fillColor=#fff2cc;strokeColor=#d6b656;fontSize=10;labelPosition=right;verticalLabelPosition=middle;align=left;verticalAlign=middle;spacing=15;" parent="1" vertex="1">
          <mxGeometry x="2040" y="692.5" width="90" height="25" as="geometry" />
        </mxCell>
        <mxCell id="ZjM2DY8Y-TmKG4xLH8F4-2" value="Storage Videos&lt;br&gt;&lt;br&gt;&amp;lt;&amp;lt;artifact&amp;gt;&amp;gt;&lt;br&gt;Almacén Frío&lt;br&gt;Videos Históricos" style="shape=cube;whiteSpace=wrap;html=1;boundedLbl=1;backgroundOutline=1;darkOpacity=0.05;darkOpacity2=0.1;fillColor=#fff2cc;strokeColor=#d6b656;fontSize=9;fontStyle=0;" vertex="1" parent="1">
          <mxGeometry x="1680" y="243" width="140" height="98.5" as="geometry" />
        </mxCell>
        <mxCell id="ZjM2DY8Y-TmKG4xLH8F4-3" value="&lt;span&gt;&amp;lt;&amp;lt;artifact&amp;gt;&amp;gt;&lt;/span&gt;&lt;div&gt;&lt;span style=&quot;background-color: transparent; color: light-dark(rgb(0, 0, 0), rgb(237, 237, 237));&quot;&gt;- MinIO&lt;/span&gt;&lt;/div&gt;&lt;div&gt;&lt;span style=&quot;background-color: transparent; color: light-dark(rgb(0, 0, 0), rgb(237, 237, 237));&quot;&gt;- Archivos .mp4&lt;/span&gt;&lt;/div&gt;" style="rounded=0;whiteSpace=wrap;html=1;fillColor=#99FF99;fontColor=#000000;strokeColor=#2D7600;fontSize=9;" vertex="1" parent="1">
          <mxGeometry x="1710" y="290" width="90" height="45" as="geometry" />
        </mxCell>
        <mxCell id="ZjM2DY8Y-TmKG4xLH8F4-5" style="edgeStyle=orthogonalEdgeStyle;rounded=0;orthogonalLoop=1;jettySize=auto;html=1;exitX=0;exitY=0;exitDx=130;exitDy=55;exitPerimeter=0;entryX=0;entryY=0;entryDx=0;entryDy=37.5;entryPerimeter=0;" edge="1" parent="1" source="0Tk5fZXrLw2a1cFThhE1-20" target="0Tk5fZXrLw2a1cFThhE1-22">
          <mxGeometry relative="1" as="geometry">
            <Array as="points">
              <mxPoint x="1660" y="341" />
              <mxPoint x="1660" y="389" />
            </Array>
          </mxGeometry>
        </mxCell>
        <mxCell id="ZjM2DY8Y-TmKG4xLH8F4-7" style="edgeStyle=orthogonalEdgeStyle;rounded=0;orthogonalLoop=1;jettySize=auto;html=1;entryX=0;entryY=0;entryDx=0;entryDy=39.25;entryPerimeter=0;" edge="1" parent="1" source="0Tk5fZXrLw2a1cFThhE1-20" target="ZjM2DY8Y-TmKG4xLH8F4-2">
          <mxGeometry relative="1" as="geometry">
            <Array as="points">
              <mxPoint x="1660" y="331" />
              <mxPoint x="1660" y="282" />
            </Array>
          </mxGeometry>
        </mxCell>
      </root>
    </mxGraphModel>
  </diagram>
</mxfile>
